<?xml version="1.0" encoding="UTF-8" standalone="no"?>
<svg
   xmlns:dc="http://purl.org/dc/elements/1.1/"
   xmlns:cc="http://creativecommons.org/ns#"
   xmlns:rdf="http://www.w3.org/1999/02/22-rdf-syntax-ns#"
   xmlns:svg="http://www.w3.org/2000/svg"
   xmlns="http://www.w3.org/2000/svg"
   xmlns:xlink="http://www.w3.org/1999/xlink"
   id="svg4304"
   version="1.1"
   width="2000"
   height="276"
   viewBox="0 0 2000 276">
  <metadata
     id="metadata4310">
    <rdf:RDF>
      <cc:Work
         rdf:about="">
        <dc:format>image/svg+xml</dc:format>
        <dc:type
           rdf:resource="http://purl.org/dc/dcmitype/StillImage" />
        <dc:title></dc:title>
      </cc:Work>
    </rdf:RDF>
  </metadata>
  <defs
     id="defs4308">
    <color-profile
       name="Black---White"
       xlink:href="/Library/ColorSync/Profiles/Black &amp; White.icc"
       id="color-profile4364" />
  </defs>
  <g
     id="layer1"
     style="display:inline" />
  <g
     id="layer2"
     style="display:inline">
    <path
       style="display:inline;fill:#595959;fill-opacity:1"
       d="M 87.625467,273.51024 C 49.756136,265.63254 20.620985,240.38008 7.6147026,204.1621 2.0635041,188.70394 2,187.42256 2,90.86901 L 2,2 12.5,2 23,2 23,53.5 c 0,28.325 0.227231,51.5 0.504957,51.5 0.277726,0 4.215226,-3.73435 8.75,-8.298562 C 72.774507,55.918875 136.5929,54.577447 177.99911,93.637975 238.10563,150.33941 213.33801,249.42648 133.5,271.6643 c -11.41064,3.17828 -34.921876,4.12435 -45.874533,1.84594 z M 126.59004,250.9841 c 44.6856,-11.38838 71.717,-56.2605 60.80303,-100.93304 -3.4892,-14.28184 -13.90064,-31.9885 -24.20478,-41.16491 C 145.82887,93.426634 124.67832,85.996645 101.71979,87.292853 79.891678,88.52524 61.782207,97.016388 46.370461,113.24498 35.694749,124.48653 28.616165,137.88491 25.442719,152.85714 23.331261,162.81893 23.607701,179.80147 26.047328,190 33.291362,220.28269 58.239799,244.8586 88.5,251.52015 c 9.613542,2.11634 28.73871,1.84719 38.09004,-0.53605 z m 274.32935,23.00541 c -61.05448,-10.33327 -100.33151,-70.41284 -85.03236,-130.06857 9.41261,-36.70242 38.54599,-65.707263 75.99409,-75.658805 8.228,-2.186527 11.78787,-2.561865 24.61888,-2.595712 10.22162,-0.02696 17.24442,0.466985 22.04553,1.550573 39.17358,8.841279 69.69073,37.988814 80.26647,76.664124 l 2.63028,9.61888 0.32682,54.25 0.32681,54.25 -11.04795,0 -11.04796,0 0,-13.51874 0,-13.51875 -6.6567,7.05646 c -15.51824,16.45014 -35.24716,27.22998 -57.59366,31.46904 -8.33659,1.58142 -26.87256,1.84831 -34.83025,0.5015 z m 42.1765,-24.64163 c 28.26034,-9.87408 48.24251,-31.62752 54.97477,-59.84788 1.81538,-7.60969 2.07703,-11.08547 1.6938,-22.5 -0.39687,-11.82091 -0.84755,-14.663 -3.62349,-22.85059 -4.1938,-12.36953 -9.80057,-21.73188 -18.50092,-30.89336 -15.4228,-16.240227 -33.52611,-24.730493 -55.35984,-25.963197 -26.84415,-1.515586 -51.38248,8.940979 -68.5173,29.197407 -6.80271,8.04202 -14.77902,23.6274 -17.1758,33.5608 -10.76969,44.63468 15.73624,88.92159 60.41289,100.93968 6.30436,1.69589 9.89128,1.96515 22.5,1.68902 13.62308,-0.29835 15.78906,-0.6042 23.59589,-3.33188 z m 341.15301,23.40506 c -1.78811,-0.57359 -4.82994,-2.44015 -6.75962,-4.14792 C 775.5596,266.89726 746.50566,225.45 712.92499,176.5 c -37.47127,-54.62124 -61.66548,-89 -62.63418,-89 -1.42748,0 -1.55828,8.390538 -1.36788,87.75 l 0.21053,87.75 -11.06673,0 -11.06673,0 0.022,-89.75 c 0.0208,-84.911972 0.12088,-89.965622 1.85688,-93.75 3.9493,-8.609216 11.73721,-13.456076 21.62116,-13.456076 6.82674,0 12.6728,2.262431 16.5,6.385515 1.375,1.481302 29.75911,42.378161 63.0758,90.881921 33.31668,48.50375 61.32918,88.33414 62.25,88.51196 1.54996,0.29933 1.6742,-3.94914 1.6742,-57.25 L 794,137 l 11,0 11,0 0,58.63398 c 0,41.04093 -0.34248,59.77709 -1.14143,62.44374 -3.527,11.77208 -18.01158,18.71643 -30.60967,14.67522 z m 165.0823,-1.27519 c -2.78382,-1.38723 -5.73421,-3.29973 -6.55641,-4.25 -0.82221,-0.95026 -29.05809,-41.91102 -62.74641,-91.0239 -33.68833,-49.11288 -61.7638,-89.126658 -62.38994,-88.919508 -0.69423,0.229676 -1.25177,3.564326 -1.42888,8.546148 L 815.91912,104 804.95956,104 794,104 l 0,-9.13398 c 0,-11.028873 1.25523,-15.635926 5.66323,-20.785685 5.09759,-5.95539 10.96743,-8.383403 19.14956,-7.921071 13.13561,0.742228 8.23045,-5.308397 77.63433,95.763726 C 943.6422,230.65267 958.7743,252 960.29844,252 c 1.98201,0 1.99185,-0.44642 1.26648,-57.5 l -0.73105,-57.5 11.08307,0 11.08306,0 -0.022,59.75 c -0.0247,67.32698 0.31915,64.15754 -7.75096,71.43345 -7.04767,6.35409 -17.1713,7.64195 -25.89588,3.2943 z M 239.26448,207.25 c 0.36343,-45.31944 0.73214,-56.52796 2.1406,-65.07211 3.36913,-20.43821 9.30082,-36.40626 18.1094,-48.750389 11.64839,-16.323754 30.1999,-25.817388 54.73552,-28.0106 L 322,64.724137 322,75.862068 322,87 l -4.75,0.01736 c -2.6125,0.0096 -7.9,0.681651 -11.75,1.493558 -23.16701,4.885573 -35.84645,20.877052 -42.11462,53.115522 -1.47126,7.56701 -1.78477,17.08225 -2.12919,64.62356 l -0.4039,55.75 -11.01343,0 -11.01343,0 z M 562,169 l 0,-93 11,0 11,0 0,93 0,93 -11,0 -11,0 z M 1968.6275,57.53183 C 1959.0915,54.132657 1953,45.665833 1953,35.810598 c 0,-13.846494 9.2711,-23.195977 23.0784,-23.27361 5.6127,-0.03156 7.2964,0.406889 11.4691,2.986671 7.2779,4.499606 10.7666,10.04621 11.2676,17.914097 0.3348,5.25763 -0.036,7.365215 -2.0831,11.83639 -4.9816,10.881295 -17.1172,16.174194 -28.1045,12.257684 z m 19.0661,-5.1193 c 10.2503,-8.155439 11.0598,-23.840146 1.6825,-32.598912 C 1985.6255,16.310422 1981.9841,15 1976,15 c -5.9841,0 -9.6255,1.310422 -13.3761,4.813618 -8.4359,7.879401 -8.6896,23.367625 -0.5058,30.86995 4.7105,4.318219 8.0133,5.432453 15.0755,5.085894 5.674,-0.278432 7.2735,-0.789809 10.5,-3.356932 z M 1967,35 l 0,-13 5.25,0.02386 c 10.6349,0.04833 15.75,2.481793 15.75,7.492959 0,2.497469 -3.882,6.483184 -6.3145,6.483184 -2.3776,0 -2.1496,0.837525 1.8411,6.763348 2.568,3.813357 3.1125,5.236652 2.0034,5.236652 -0.8378,0 -3.211,-2.7 -5.2738,-6 -3.3348,-5.334967 -4.1111,-6 -7.0034,-6 l -3.2528,0 0,6 c 0,4.666667 -0.3333,6 -1.5,6 -1.2564,0 -1.5,-2.111111 -1.5,-13.000003 z m 16.0657,-2.035184 c 2.624,-1.404288 2.4654,-5.479399 -0.2882,-7.408112 C 1981.4475,24.625165 1978.4356,24 1975.2775,24 l -5.2775,0 0,5 0,5 5.5657,0 c 3.0612,0 6.4362,-0.465833 7.5,-1.035184 z M 562,41 l 0,-11 11,0 11,0 0,11 0,11 -11,0 -11,0 z"
       id="path4316" />
  </g>
  <g
     style="display:inline"
     id="g4322">
    <path
       id="path4324"
       d="m 1442.2456,274.90371 c -42.564,-3.98265 -78.4552,-34.16306 -90.8611,-76.40371 -3.5432,-12.06426 -4.4566,-34.47581 -1.9491,-47.8264 7.6439,-40.69897 37.8856,-72.631572 78.5646,-82.957322 6.9969,-1.776064 11.4177,-2.159614 25,-2.168998 14.9652,-0.01034 17.4302,0.24583 26.5,2.754019 41.9897,11.611907 72.1104,46.188471 77.4698,88.930041 0.5806,4.63026 1.0302,29.5044 1.0302,56.99243 l 0,48.77623 -11,0 -11,0 0,-13.5 c 0,-7.425 -0.1876,-13.5 -0.4169,-13.5 -0.2293,0 -3.2668,2.97774 -6.75,6.61719 -22.7987,23.82132 -53.743,35.35975 -86.5875,32.28652 z m 31.2544,-24.2872 c 3.3,-0.89193 10.5891,-3.87667 16.198,-6.63276 8.1382,-3.99896 11.9229,-6.64382 18.738,-13.09497 18.2907,-17.31364 26.7821,-36.83153 26.7075,-61.38878 -0.1061,-34.96133 -22.4732,-66.27377 -55.4142,-77.576072 -14.8701,-5.102043 -26.1438,-6.023509 -41.3483,-3.379636 -15.9011,2.764997 -31.1571,10.607965 -42.9373,22.073628 -32.7144,31.84097 -34.0234,82.60137 -2.9943,116.10657 11.2392,12.13603 26.8363,21.07459 43.0506,24.67195 8.868,1.96748 29.3936,1.5462 38,-0.77993 z m 362.5,24.27867 c -43.0366,-3.54307 -80.1694,-35.22442 -91.093,-77.71975 -4.3125,-16.77688 -4.0704,-40.46468 0.5794,-56.67543 5.2432,-18.27927 13.8372,-32.98183 26.9345,-46.079106 13.4745,-13.474483 28.5098,-22.096877 47.3733,-27.167484 8.6644,-2.329029 11.5299,-2.608971 26.7058,-2.608971 15.2142,0 18.0505,0.278653 27,2.652581 19.4038,5.147012 41.0927,18.275729 52.6472,31.868327 16.4324,19.331043 24.2014,39.119093 25.51,64.975473 L 1952.308,177 l -94.2419,0 -94.2419,0 0.6572,4.25 c 3.8341,24.79569 16.062,44.9427 34.941,57.56971 37.5862,25.13919 88.0899,16.04903 114.2826,-20.56971 l 4.4706,-6.25 12.4256,0 12.4256,0 -1.4837,3.55121 c -0.8161,1.95316 -3.9035,7.26327 -6.8608,11.80024 -21.7107,33.30714 -58.1811,50.87806 -98.6823,47.54373 z M 1927.9881,153.25 c -0.023,-3.3391 -2.8329,-12.32117 -5.917,-18.9118 C 1906.9572,102.04063 1870.9396,82.217061 1836,86.965925 1800.5866,91.779182 1773.3479,117.0274 1765.5692,152.25 l -0.6073,2.75 81.519,0 c 76.9751,0 81.5184,-0.0976 81.5072,-1.75 z m -811.7172,118.65506 c -2.326,-1.15134 -5.476,-3.55521 -7,-5.34192 C 1107.7469,264.77643 1079.5,223.88492 1046.5,175.69311 1006.0288,116.59064 985.93041,88.059981 984.75,88.03582 983.22618,88.00463 983,89.033973 983,96 l 0,8 -11.10793,0 -11.10792,0 0.36108,-11.25 c 0.32614,-10.161337 0.6313,-11.710217 3.15347,-16.005782 6.81467,-11.60624 23.55856,-14.915901 34.88917,-6.896328 2.71783,1.923619 20.61653,27.236283 65.16103,92.15211 33.7776,49.225 62.0298,89.5 62.7825,89.5 1.1469,0 1.3783,-13.69072 1.4285,-84.5 0.06,-84.228252 0.067,-84.513168 2.1911,-88.59468 4.9031,-9.420528 15.9209,-14.711326 26.1762,-12.569868 2.9849,0.623304 7.0865,2.231368 9.1145,3.573476 2.7731,1.835143 19.0197,24.7746 65.523,92.515632 34.0096,49.54149 62.4205,90.07544 63.1354,90.07544 1.0567,0 1.2999,-16.4667 1.2999,-88 l 0,-88 11,0 11,0 0,90.38581 0,90.38581 -2.7942,5.34875 c -2.0344,3.89415 -4.1206,6.1688 -7.6716,8.36419 -4.4411,2.74571 -5.6512,3.01544 -13.5288,3.01544 -7.6953,0 -9.0962,-0.29431 -12.6754,-2.66292 -3.2139,-2.12687 -16.4748,-20.79757 -65.8756,-92.75 C 1181.436,128.53919 1153.0171,88 1152.3014,88 c -1.0581,0 -1.3024,15.56752 -1.307,83.25 0,55.60503 -0.3579,84.51877 -1.0665,87.07078 -1.3555,4.88123 -7.2841,11.47089 -12.4279,13.81356 -5.6854,2.58932 -15.7545,2.48057 -21.2291,-0.22928 z m 486.0029,-99.6485 c -21.0244,-51.01611 -38.5101,-93.54406 -38.857,-94.50656 -0.5782,-1.60421 0.3645,-1.75 11.3157,-1.75 11.4216,0 11.991,0.09884 12.9611,2.25 0.558,1.2375 14.6503,35.325 31.3162,75.75 16.6659,40.425 30.5811,73.82705 30.9227,74.22678 0.3416,0.39972 14.7678,-33.51385 32.0583,-75.3635 17.2904,-41.84965 31.9309,-76.279735 32.5343,-76.511296 0.6035,-0.23156 6.102,-0.292986 12.2189,-0.136501 l 11.1217,0.284517 -38.8509,94 -38.8508,94 -9.832,0.25656 -9.832,0.25657 z"
       style="display:inline;fill:#b50010;fill-opacity:1" />
  </g>
</svg>
